<?xml version="1.0" encoding="UTF-8"?>
<svg xmlns="http://www.w3.org/2000/svg" xmlns:xlink="http://www.w3.org/1999/xlink" width="64px" height="64px" viewBox="0 0 64 64" version="1.1">
<g id="surface1">
<path style=" stroke:none;fill-rule:nonzero;fill:rgb(0%,0%,0%);fill-opacity:1;" d="M 32 34.667969 C 34.578125 34.667969 36.777344 33.753906 38.601562 31.933594 C 40.421875 30.109375 41.332031 27.910156 41.332031 25.332031 C 41.332031 22.753906 40.421875 20.554688 38.601562 18.734375 C 36.777344 16.910156 34.578125 16 32 16 C 29.421875 16 27.222656 16.910156 25.398438 18.734375 C 23.578125 20.554688 22.667969 22.753906 22.667969 25.332031 C 22.667969 27.910156 23.578125 30.109375 25.398438 31.933594 C 27.222656 33.753906 29.421875 34.667969 32 34.667969 Z M 13.332031 56 C 11.867188 56 10.609375 55.476562 9.566406 54.433594 C 8.519531 53.386719 8 52.132812 8 50.667969 L 8 13.332031 C 8 11.867188 8.523438 10.609375 9.566406 9.566406 C 10.613281 8.519531 11.867188 8 13.332031 8 L 50.667969 8 C 52.132812 8 53.390625 8.523438 54.433594 9.566406 C 55.480469 10.613281 56 11.867188 56 13.332031 L 56 50.667969 C 56 52.132812 55.476562 53.390625 54.433594 54.433594 C 53.386719 55.480469 52.132812 56 50.667969 56 Z M 13.332031 50.667969 L 50.667969 50.667969 L 50.667969 47.601562 C 48.265625 45.246094 45.476562 43.390625 42.296875 42.035156 C 39.121094 40.679688 35.6875 40 32 40 C 28.3125 40 24.878906 40.679688 21.699219 42.035156 C 18.519531 43.390625 15.730469 45.246094 13.332031 47.601562 Z M 13.332031 50.667969 "/>
</g>
</svg>
