<?xml version="1.0" standalone="no"?>
<!DOCTYPE svg PUBLIC "-//W3C//DTD SVG 20010904//EN"
 "http://www.w3.org/TR/2001/REC-SVG-20010904/DTD/svg10.dtd">
<svg version="1.0" xmlns="http://www.w3.org/2000/svg"
 width="500.000000pt" height="500.000000pt" viewBox="0 0 500.000000 500.000000"
 preserveAspectRatio="xMidYMid meet">

<g transform="translate(0.000000,500.000000) scale(0.100000,-0.100000)"
fill="#000000" stroke="none">
<path d="M2392 4540 c-136 -29 -242 -111 -307 -239 l-32 -65 -18 37 c-41 87
-135 115 -224 68 -46 -25 -66 -118 -36 -171 8 -14 14 -28 15 -32 0 -3 -44 -21
-97 -38 -54 -18 -135 -48 -181 -67 l-82 -35 -21 26 c-30 38 -91 66 -144 66
-117 0 -198 -104 -165 -212 l12 -41 -79 -81 c-159 -163 -258 -291 -360 -464
-85 -147 -122 -233 -173 -402 -91 -302 -103 -522 -52 -1000 17 -157 38 -363
47 -459 17 -176 29 -222 62 -236 10 -4 77 -9 148 -12 l130 -6 37 -41 37 -41
-32 -3 c-58 -5 -77 -12 -77 -30 0 -9 10 -22 23 -27 15 -7 23 -20 25 -41 3 -26
-3 -36 -28 -54 -16 -12 -28 -26 -25 -31 4 -5 139 -9 318 -10 273 0 308 -2 277
-14 -25 -10 -93 -14 -237 -14 -202 -1 -203 -1 -218 -25 -24 -37 -3 -74 44 -78
l36 -3 -42 -29 c-50 -34 -60 -58 -39 -91 13 -19 25 -25 55 -25 38 0 41 2 213
118 l48 32 385 0 c236 0 385 -4 385 -9 0 -6 -15 -21 -33 -35 l-34 -26 -353 -2
c-323 -3 -354 -4 -364 -21 -8 -12 -8 -22 0 -35 10 -15 38 -17 308 -20 170 -1
296 -6 296 -11 0 -21 -75 -71 -106 -71 -37 0 -58 -21 -49 -50 6 -18 15 -20 81
-20 l75 0 79 -75 c74 -70 82 -75 123 -75 48 0 60 7 156 92 l55 48 452 0 c278
0 463 4 479 10 21 8 26 16 23 38 l-3 27 -417 3 c-230 1 -418 5 -418 9 0 3 17
21 38 40 l37 33 526 0 c395 0 528 3 537 12 17 17 15 55 -4 62 -9 3 -240 6
-515 6 -393 0 -499 3 -499 13 0 6 3 22 6 34 l6 23 644 0 c638 0 643 0 657 21
17 23 11 58 -9 66 -24 9 -15 21 21 27 38 7 55 30 55 71 0 21 -4 26 -16 21 -9
-3 -82 -6 -164 -6 -143 0 -148 -1 -143 -20 5 -20 -12 -50 -28 -50 -5 0 -6 8
-2 18 5 14 3 15 -8 4 -9 -8 -56 -12 -157 -12 -130 0 -144 2 -138 16 10 25 -3
54 -27 64 -13 5 130 9 361 9 354 0 385 2 425 19 72 33 97 74 112 186 4 30 22
72 47 115 124 201 224 504 259 784 13 111 7 415 -11 485 -10 41 -9 46 20 82
38 48 69 117 70 152 0 30 14 46 63 77 18 11 39 32 45 46 22 48 -7 75 -81 75
-42 0 -44 1 -84 64 -44 69 -108 120 -176 140 -35 10 -46 20 -72 66 -41 74
-122 197 -155 238 l-27 32 29 57 c39 77 40 175 2 250 -88 177 -312 221 -474
93 l-37 -29 -54 40 c-91 69 -309 170 -446 207 -65 18 -66 19 -84 68 -27 72
-114 181 -173 219 -106 67 -249 97 -354 75z m-2 -60 c0 -5 -2 -10 -4 -10 -3 0
-8 5 -11 10 -3 6 -1 10 4 10 6 0 11 -4 11 -10z m65 -120 c0 -8 -10 -16 -22
-18 -22 -3 -32 16 -16 32 12 11 38 2 38 -14z m154 -9 c13 -24 -9 -57 -33 -48
-23 9 -31 34 -16 52 17 20 37 19 49 -4z m101 9 c0 -5 -2 -10 -4 -10 -3 0 -8 5
-11 10 -3 6 -1 10 4 10 6 0 11 -4 11 -10z m-835 -90 c-1 -11 -7 -26 -13 -32
-15 -15 -16 -48 -2 -48 6 0 10 -4 10 -10 0 -14 -26 -12 -38 3 -23 27 -24 65
-3 86 27 27 48 27 46 1z m445 -13 c9 -20 31 -40 57 -53 39 -20 41 -22 20 -28
-38 -9 -76 -45 -85 -79 l-9 -32 -16 37 c-16 39 -67 77 -102 79 -12 0 0 9 31
23 36 17 54 32 63 55 17 39 22 39 41 -2z m503 -41 c48 -54 71 -96 53 -96 -3 0
-30 27 -62 60 -31 33 -59 58 -62 55 -9 -8 -42 16 -42 30 0 10 10 15 28 15 22
0 41 -14 85 -64z m-75 -70 c40 -41 72 -82 72 -92 0 -26 -353 -379 -430 -429
-36 -23 -97 -58 -135 -78 -83 -41 -256 -109 -263 -103 -5 6 54 184 85 254 12
28 27 52 33 52 5 0 1 -19 -9 -42 -29 -69 -83 -230 -78 -234 7 -7 160 52 247
96 45 23 80 44 77 46 -3 3 -20 -2 -38 -12 -31 -16 -165 -64 -179 -64 -3 0 -16
14 -29 31 l-22 30 62 100 c44 70 82 116 128 156 36 31 102 91 146 132 191 180
247 231 254 231 4 0 40 -33 79 -74z m-738 -56 c0 -5 -2 -10 -4 -10 -3 0 -8 5
-11 10 -3 6 -1 10 4 10 6 0 11 -4 11 -10z m-114 -27 c-10 -10 -19 5 -10 18 6
11 8 11 12 0 2 -7 1 -15 -2 -18z m299 -3 c3 -5 -1 -10 -9 -10 -9 0 -16 5 -16
10 0 6 4 10 9 10 6 0 13 -4 16 -10z m806 -5 c-1 -15 -24 -12 -29 3 -3 9 2 13
12 10 10 -1 17 -7 17 -13z m-1680 -11 c57 -29 77 -128 39 -189 -43 -69 -130
-81 -192 -26 -62 55 -44 176 32 213 43 22 82 23 121 2z m361 -76 c-15 -15 -26
-4 -18 18 5 13 9 15 18 6 9 -9 9 -15 0 -24z m293 22 c3 -5 1 -10 -4 -10 -6 0
-11 5 -11 10 0 6 2 10 4 10 3 0 8 -4 11 -10z m968 3 c9 -9 -13 -34 -24 -27
-14 8 -11 34 4 34 8 0 17 -3 20 -7z m732 -25 c-75 -41 -135 -140 -135 -223 0
-98 81 -212 171 -240 l44 -14 -42 0 c-161 -3 -292 197 -224 344 26 57 65 100
114 124 45 23 112 31 72 9z m-2205 -12 c0 -3 -4 -8 -10 -11 -5 -3 -10 -1 -10
4 0 6 5 11 10 11 6 0 10 -2 10 -4z m1823 -64 c10 -11 30 -23 45 -27 26 -6 25
-7 -15 -25 -30 -13 -44 -27 -54 -53 l-12 -35 -21 42 c-15 29 -30 44 -53 50
l-32 10 37 21 c20 11 44 34 52 52 l15 32 10 -24 c6 -13 18 -32 28 -43z m-1715
-11 c4 -29 -15 -43 -40 -30 -18 10 -24 39 -11 53 15 15 48 1 51 -23z m2079 3
c-9 -9 -28 6 -21 18 4 6 10 6 17 -1 6 -6 8 -13 4 -17z m-1775 -97 c12 -9 35
-19 51 -22 34 -9 35 -21 0 -30 -44 -11 -80 -42 -98 -87 l-18 -43 -10 30 c-5
17 -18 42 -28 56 -17 24 -30 31 -94 54 -15 6 -17 8 -5 12 61 18 93 40 111 74
10 21 19 46 20 56 0 10 11 -5 24 -34 13 -28 34 -58 47 -66z m961 40 c-15 -16
-17 -16 -30 3 -11 15 -11 23 -2 39 12 18 13 18 30 -3 16 -19 16 -23 2 -39z
m1025 -70 c4 -20 -25 -34 -39 -20 -14 14 1 45 20 41 9 -2 17 -11 19 -21z
m-238 -12 c0 -8 -7 -15 -15 -15 -8 0 -15 7 -15 15 0 8 7 15 15 15 8 0 15 -7
15 -15z m-540 -37 c26 -42 25 -56 0 -33 -11 10 -20 15 -20 11 0 -4 -13 1 -29
10 -28 16 -30 16 -59 -5 -17 -11 -33 -21 -36 -21 -13 0 -5 25 16 47 16 17 32
23 65 23 38 0 46 -4 63 -32z m-1640 18 c0 -3 -4 -8 -10 -11 -5 -3 -10 -1 -10
4 0 6 5 11 10 11 6 0 10 -2 10 -4z m-343 -66 c8 0 27 7 43 15 25 13 30 13 30
2 0 -22 59 -98 71 -92 16 11 39 -15 39 -44 0 -36 -14 -55 -35 -48 -20 8 -82
-17 -112 -45 -12 -11 -30 -43 -39 -71 l-17 -50 -18 48 c-26 68 -63 102 -133
124 l-59 18 58 33 c61 35 89 71 100 127 l6 35 26 -26 c14 -14 32 -26 40 -26z
m1663 34 c0 -8 -4 -12 -10 -9 -5 3 -10 10 -10 16 0 5 5 9 10 9 6 0 10 -7 10
-16z m-1371 -8 c17 -20 3 -46 -24 -46 -29 0 -38 13 -30 40 7 23 37 26 54 6z
m1596 -50 c18 -13 14 -19 -73 -108 -50 -52 -92 -98 -92 -102 0 -4 10 -16 21
-25 21 -17 23 -16 107 71 48 48 90 88 94 88 17 0 -12 -39 -81 -108 -79 -80
-138 -116 -177 -106 -24 6 -25 9 -18 48 3 22 9 49 13 58 7 20 169 198 180 198
4 0 16 -6 26 -14z m375 -11 c0 -8 -4 -15 -9 -15 -13 0 -22 16 -14 24 11 11 23
6 23 -9z m-1734 -66 c-19 -16 -23 -16 -38 -2 -16 14 -16 17 -1 39 l15 24 23
-22 23 -22 -22 -17z m1604 43 c0 -13 -12 -22 -22 -16 -10 6 -1 24 13 24 5 0 9
-4 9 -8z m500 -7 c0 -8 -7 -15 -15 -15 -8 0 -15 7 -15 15 0 8 7 15 15 15 8 0
15 -7 15 -15z m-1095 -75 c0 -16 -6 -26 -18 -28 -19 -4 -32 20 -23 44 9 25 41
13 41 -16z m785 20 c0 -5 -4 -10 -10 -10 -5 0 -10 5 -10 10 0 6 5 10 10 10 6
0 10 -4 10 -10z m-1792 -188 l63 -3 -28 -49 c-28 -50 -28 -73 2 -142 6 -16 1
-17 -46 -15 l-53 2 -27 -49 c-24 -43 -28 -46 -34 -27 -3 11 -18 35 -32 52 -25
29 -29 30 -76 24 -46 -7 -49 -6 -42 11 28 67 29 93 7 137 -12 24 -22 47 -22
51 0 3 24 6 53 6 59 0 71 9 102 69 l17 34 27 -49 26 -49 63 -3z m747 63 c0
-22 -31 -33 -47 -17 -17 17 -1 44 24 40 15 -2 23 -10 23 -23z m933 -7 c2 -19
-2 -28 -18 -33 -24 -8 -50 10 -50 35 0 24 10 31 40 28 19 -2 26 -10 28 -30z
m186 11 c-3 -5 -10 -7 -15 -3 -5 3 -7 10 -3 15 3 5 10 7 15 3 5 -3 7 -10 3
-15z m-1297 -43 c-4 -9 -11 -16 -17 -16 -11 0 -14 33 -3 44 11 10 26 -11 20
-28z m1713 19 c10 -12 10 -18 0 -30 -7 -8 -18 -15 -25 -15 -19 0 -36 25 -29
44 8 20 38 21 54 1z m-2012 -4 c21 -13 10 -46 -16 -49 -24 -4 -38 18 -28 43 6
17 24 19 44 6z m2102 -51 c0 -5 -4 -10 -10 -10 -5 0 -10 5 -10 10 0 6 5 10 10
10 6 0 10 -4 10 -10z m-512 -23 c2 -12 -3 -17 -17 -17 -12 0 -21 6 -21 13 0
31 32 34 38 4z m192 -2 c0 -8 -4 -15 -9 -15 -13 0 -22 16 -14 24 11 11 23 6
23 -9z m-2805 -26 c0 -7 -8 -15 -17 -17 -18 -3 -25 18 -11 32 10 10 28 1 28
-15z m2824 -118 l44 -14 -44 -16 c-35 -13 -48 -24 -63 -57 l-19 -41 -21 41
c-16 32 -31 44 -64 56 -42 16 -47 30 -9 30 24 0 87 62 87 86 0 10 10 -2 23
-26 18 -37 30 -47 66 -59z m-2750 27 c-10 -18 -12 -19 -27 -5 -13 13 -13 19
-2 32 19 23 44 0 29 -27z m140 -83 c0 -67 -4 -115 -9 -115 -6 0 -10 50 -10
121 0 74 4 118 10 114 5 -3 9 -57 9 -120z m1999 102 c2 -12 -3 -17 -17 -17
-12 0 -21 6 -21 13 0 31 32 34 38 4z m-561 -23 c62 -30 139 -112 176 -187 53
-108 70 -269 43 -409 -21 -109 -51 -180 -119 -281 -67 -99 -123 -143 -226
-179 -161 -57 -331 33 -361 192 -12 65 7 154 45 212 32 48 119 105 182 118 96
21 202 -30 244 -117 61 -124 -1 -281 -135 -345 l-41 -19 40 6 c121 19 212 132
237 291 35 227 -106 423 -328 454 -150 20 -295 -31 -414 -149 -118 -116 -179
-268 -187 -466 -6 -152 11 -238 71 -360 53 -107 84 -146 183 -230 146 -125
408 -230 585 -236 112 -4 -91 -17 -280 -18 -226 -1 -218 -3 -329 76 -66 47
-115 102 -177 196 -149 229 -186 516 -100 788 59 186 219 375 393 463 66 34
189 66 250 66 79 0 197 -34 254 -73 86 -59 161 -174 174 -263 8 -58 23 -38 23
31 0 63 -24 163 -51 218 -29 57 -102 141 -152 176 -23 15 -71 40 -107 55 l-65
27 60 -6 c33 -3 84 -17 112 -31z m393 10 c0 -8 -7 -14 -15 -14 -15 0 -21 21
-9 33 10 9 24 -2 24 -19z m1316 -19 c28 -14 59 -35 70 -47 l19 -22 -35 21
c-45 27 -142 47 -189 38 -68 -12 -72 -14 -58 -36 10 -16 9 -21 -3 -29 -19 -12
-33 -2 -27 21 13 50 -109 -56 -146 -126 -15 -29 -21 -61 -22 -115 -1 -67 -4
-75 -21 -75 -17 0 -19 8 -19 90 1 102 20 151 84 218 89 94 228 119 347 62z
m-3526 -15 c0 -22 -24 -32 -39 -17 -15 15 -14 34 2 40 20 7 37 -4 37 -23z
m1238 19 c-2 -6 -8 -10 -13 -10 -5 0 -11 4 -13 10 -2 6 4 11 13 11 9 0 15 -5
13 -11z m-723 -20 c0 -7 -8 -15 -17 -17 -18 -3 -25 18 -11 32 10 10 28 1 28
-15z m2048 -3 c8 -20 -20 -43 -35 -28 -14 14 -3 42 16 42 7 0 16 -6 19 -14z
m-2434 -154 l39 -17 -37 -20 c-20 -11 -43 -34 -52 -52 l-16 -31 -12 33 c-8 23
-24 39 -50 52 l-37 18 39 17 c25 12 42 28 50 48 l11 29 13 -30 c8 -20 26 -36
52 -47z m3098 34 c-17 -23 -34 -42 -35 -40 -8 6 11 46 31 64 36 34 38 22 4
-24z m123 -12 c0 -14 -21 -19 -33 -7 -9 9 13 34 24 27 5 -3 9 -12 9 -20z
m-2775 -33 c7 -12 -12 -24 -25 -16 -11 7 -4 25 10 25 5 0 11 -4 15 -9z m556
-45 l-33 -34 -120 -4 c-117 -3 -120 -4 -144 -31 l-24 -28 0 -425 0 -424 -40 0
-40 0 0 415 c0 389 1 418 19 453 47 92 95 111 275 112 l140 0 -33 -34z m1495
9 c15 -12 33 -30 41 -42 15 -22 14 -22 -18 -13 -19 6 -100 10 -180 10 l-147 0
-11 31 c-6 18 -11 34 -11 36 0 3 67 3 149 1 132 -3 153 -5 177 -23z m1191 8
c3 -7 -8 -24 -23 -39 l-29 -25 -8 25 -8 25 -142 -49 c-78 -27 -209 -70 -292
-96 -82 -25 -151 -47 -153 -49 -2 -2 2 -13 8 -25 14 -27 0 -46 -40 -55 -37 -8
-66 1 -75 23 -10 27 43 66 126 91 40 13 189 61 329 107 247 81 299 93 307 67z
m-3366 -42 c26 -26 29 -36 29 -89 0 -50 4 -66 25 -90 30 -36 75 -130 75 -158
0 -11 -7 -43 -15 -71 -17 -57 -75 -118 -122 -128 -16 -4 -36 -8 -45 -9 -30 -6
-109 13 -139 35 -32 22 -72 94 -82 146 -8 42 15 119 53 174 25 37 30 54 30
105 0 86 27 113 113 114 41 0 53 -5 78 -29z m2782 -37 c-7 -18 -33 -18 -33 -1
0 19 10 27 25 20 8 -2 11 -11 8 -19z m-2185 -16 c-3 -8 -31 -15 -71 -19 -99
-8 -107 -19 -107 -143 0 -56 -7 -123 -14 -151 -14 -48 -14 -44 -15 115 0 91 3
170 7 177 13 21 55 32 130 32 55 1 73 -2 70 -11z m1597 0 c37 -17 49 -69 40
-164 l-8 -79 -14 60 c-27 125 -32 136 -68 151 -63 26 -62 26 -62 -103 0 -252
-51 -399 -209 -605 -87 -113 -224 -209 -386 -271 -77 -29 -93 -31 -208 -32
-105 0 -136 4 -190 23 -80 27 -191 110 -236 175 -34 49 -69 150 -59 168 4 5 1
17 -6 25 -9 11 -9 20 -1 37 6 12 13 46 16 76 9 91 21 76 21 -27 0 -91 2 -101
34 -160 43 -78 114 -144 189 -173 75 -30 248 -33 332 -7 211 66 415 302 483
558 18 68 22 112 22 223 l0 137 142 0 c87 0 152 -5 168 -12z m-2661 -56 c17
-8 17 -10 -6 -15 -14 -4 -30 -19 -37 -34 l-12 -27 -12 24 c-7 14 -22 29 -34
35 -22 11 -22 11 8 29 16 9 29 25 29 34 0 13 5 11 23 -9 12 -15 30 -31 41 -37z
m1501 28 c0 -7 -6 -15 -12 -17 -8 -3 -13 4 -13 17 0 13 5 20 13 18 6 -3 12
-11 12 -18z m125 -20 c0 -5 -4 -10 -10 -10 -5 0 -10 5 -10 10 0 6 5 10 10 10
6 0 10 -4 10 -10z m1270 -353 c0 -289 -1 -308 -17 -305 -11 2 -18 12 -17 26 0
12 2 163 3 335 2 274 4 308 16 282 11 -23 14 -99 15 -338z m-1622 240 c4 -20
-25 -34 -40 -19 -15 15 -1 44 19 40 10 -2 19 -11 21 -21z m2210 -28 c-2 -6 -8
-10 -13 -10 -5 0 -11 4 -13 10 -2 6 4 11 13 11 9 0 15 -5 13 -11z m-212 -50
c10 -12 39 -32 64 -45 25 -13 37 -23 28 -24 -32 0 -125 40 -148 65 l-23 25 30
0 c18 0 38 -9 49 -21z m-3416 -14 c0 -8 -7 -15 -15 -15 -8 0 -15 7 -15 15 0 8
7 15 15 15 8 0 15 -7 15 -15z m1320 -55 c0 -5 -4 -10 -10 -10 -5 0 -10 5 -10
10 0 6 5 10 10 10 6 0 10 -4 10 -10z m1845 -20 c0 -7 -6 -15 -12 -17 -8 -3
-13 4 -13 17 0 13 5 20 13 18 6 -3 12 -11 12 -18z m-2915 -15 c0 -8 -7 -15
-15 -15 -8 0 -15 7 -15 15 0 8 7 15 15 15 8 0 15 -7 15 -15z m2070 0 c0 -8 -7
-15 -15 -15 -8 0 -15 7 -15 15 0 8 7 15 15 15 8 0 15 -7 15 -15z m-2380 -15
c0 -5 -4 -10 -10 -10 -5 0 -10 5 -10 10 0 6 5 10 10 10 6 0 10 -4 10 -10z
m3561 -73 c-13 -13 -26 -3 -16 12 3 6 11 8 17 5 6 -4 6 -10 -1 -17z m-753 -20
c4 -21 -27 -35 -38 -17 -12 19 0 42 19 38 9 -2 17 -11 19 -21z m927 -61 l40
-20 -32 -8 c-34 -9 -83 -59 -83 -86 -1 -9 -7 -3 -14 14 -15 33 -60 74 -82 74
-25 0 -15 16 22 33 19 10 42 30 51 46 l17 28 21 -31 c11 -17 38 -40 60 -50z
m-3647 32 c-3 -7 -11 -13 -18 -13 -7 0 -15 6 -17 13 -3 7 4 12 17 12 13 0 20
-5 18 -12z m3217 -48 c0 -18 -6 -26 -23 -28 -24 -4 -38 18 -28 44 3 9 15 14
28 12 17 -2 23 -10 23 -28z m-2787 -12 c31 -31 -10 -75 -43 -48 -19 16 -19 25
1 44 19 19 26 20 42 4z m1712 -42 c0 -3 -4 -8 -10 -11 -5 -3 -10 -1 -10 4 0 6
5 11 10 11 6 0 10 -2 10 -4z m1157 -22 c8 -21 -13 -42 -28 -27 -13 13 -5 43
11 43 6 0 13 -7 17 -16z m-2717 -9 c0 -8 -4 -15 -10 -15 -5 0 -10 7 -10 15 0
8 5 15 10 15 6 0 10 -7 10 -15z m-630 -20 c0 -8 -4 -15 -10 -15 -5 0 -10 7
-10 15 0 8 5 15 10 15 6 0 10 -7 10 -15z m3706 -66 c8 -14 -21 -43 -35 -35 -6
4 -11 16 -11 27 0 21 34 27 46 8z m-3276 -50 c195 -18 361 -36 368 -42 23 -18
14 -39 -15 -33 -51 10 -693 49 -700 43 -6 -7 4 -189 32 -562 8 -104 17 -214
20 -242 6 -51 6 -53 -18 -53 -24 0 -24 1 -41 183 -10 100 -20 202 -24 227 l-7
45 -5 -50 c-4 -41 -10 -15 -31 145 l-27 195 -2 -140 -2 -140 -18 130 c-32 246
-32 255 -10 255 12 0 23 8 27 18 12 33 36 52 67 52 17 0 191 -14 386 -31z
m908 19 c-6 -18 -28 -21 -28 -4 0 9 7 16 16 16 9 0 14 -5 12 -12z m2025 -67
c115 -11 210 -21 212 -23 2 -2 -8 -68 -20 -148 -13 -80 -44 -275 -70 -435 -25
-159 -50 -300 -55 -312 -8 -19 -17 -23 -51 -23 -25 0 -50 7 -65 19 -20 15 -49
21 -144 26 l-119 8 27 53 27 53 71 -2 c40 -1 70 -5 67 -9 -2 -5 4 -8 14 -8 10
0 42 -3 71 -6 47 -6 52 -5 52 13 0 18 -11 21 -102 32 -57 7 -115 15 -130 17
l-28 5 24 47 c12 26 33 74 46 107 13 33 30 70 37 81 15 23 23 227 9 232 -14 6
-96 -123 -96 -152 0 -8 16 -20 36 -26 23 -8 32 -16 26 -22 -6 -6 -21 -4 -41 6
-24 13 -31 14 -31 3 0 -19 21 -37 43 -37 16 0 17 -3 7 -15 -10 -13 -16 -13
-40 0 -28 14 -28 14 -45 -33 -10 -26 -36 -87 -57 -135 -39 -88 -43 -117 -13
-117 8 0 15 -4 15 -10 0 -5 -4 -10 -10 -10 -5 0 -9 -6 -7 -12 1 -9 -8 -12 -26
-10 -21 2 -29 -3 -37 -23 -18 -48 -120 -27 -120 25 0 33 12 50 35 50 44 0 38
47 -8 63 -20 6 4 46 31 49 35 4 45 47 12 55 -17 4 -20 12 -18 37 2 26 7 31 28
31 37 0 41 42 6 51 -44 11 -31 64 15 64 39 0 41 36 3 50 -39 15 -30 54 14 58
40 4 45 37 7 52 -14 5 -25 14 -25 19 0 27 14 41 41 41 38 0 41 35 4 52 -39 17
-30 53 15 59 36 6 40 44 6 53 -31 8 -32 15 -5 50 18 23 27 26 87 26 37 0 161
-9 275 -19z m-1433 -56 c0 -19 -20 -29 -32 -17 -15 15 -2 43 17 36 8 -3 15
-12 15 -19z m1652 -347 c-29 -172 -59 -360 -68 -418 -19 -121 -32 -153 -75
-175 -39 -21 -103 -16 -107 8 -3 14 4 17 46 17 84 0 71 -44 172 590 54 340 50
324 68 306 14 -14 11 -45 -36 -328z m-582 322 c0 -5 -9 -10 -20 -10 -11 0 -20
5 -20 10 0 6 9 10 20 10 11 0 20 -4 20 -10z m-1969 -40 c10 -6 25 -23 33 -38
l14 -27 -219 3 c-208 3 -219 2 -239 -18 -19 -19 -20 -33 -21 -232 -1 -117 -4
-226 -8 -243 -8 -37 -21 192 -21 380 0 119 2 135 21 159 l20 26 200 0 c118 0
208 -4 220 -10z m409 -41 c0 -5 -4 -9 -10 -9 -5 0 -10 7 -10 16 0 8 5 12 10 9
6 -3 10 -10 10 -16z m1535 -29 c3 -5 -3 -10 -14 -10 -12 0 -21 5 -21 10 0 6 6
10 14 10 8 0 18 -4 21 -10z m-707 -51 c-2 -6 -8 -10 -13 -10 -5 0 -11 4 -13
10 -2 6 4 11 13 11 9 0 15 -5 13 -11z m-1255 -11 c16 -12 17 -40 15 -313 l-3
-300 -182 -3 c-180 -2 -182 -2 -196 20 -10 18 -13 84 -13 301 1 264 2 279 20
293 27 19 333 20 359 2z m667 -38 c0 -5 -4 -10 -10 -10 -5 0 -10 5 -10 10 0 6
5 10 10 10 6 0 10 -4 10 -10z m1273 -17 c-7 -2 -19 -2 -25 0 -7 3 -2 5 12 5
14 0 19 -2 13 -5z m-1166 -49 c8 -22 -18 -37 -36 -20 -7 8 -10 19 -7 25 10 16
36 13 43 -5z m-1399 -10 c47 -5 52 -8 52 -30 l0 -25 -112 3 -113 3 -3 32 -3
33 63 -6 c35 -2 87 -7 116 -10z m839 -130 c26 -27 66 -65 88 -82 l40 -32 -118
0 -117 0 0 127 0 126 29 -44 c17 -24 51 -67 78 -95z m1969 89 c-11 -11 -19 6
-11 24 8 17 8 17 12 0 3 -10 2 -21 -1 -24z m-256 -9 c0 -2 -9 -4 -21 -4 -11 0
-18 4 -14 10 5 8 35 3 35 -6z m-23 -110 c-3 -3 -12 -4 -19 -1 -8 3 -5 6 6 6
11 1 17 -2 13 -5z m-137 -114 c0 -5 -7 -27 -15 -48 -31 -76 21 -72 -859 -72
l-786 0 0 65 0 65 830 0 c535 0 830 -3 830 -10z m120 -6 c0 -2 -7 -4 -15 -4
-8 0 -15 4 -15 10 0 5 7 7 15 4 8 -4 15 -8 15 -10z m-25 -114 c3 -5 -1 -10 -9
-10 -9 0 -16 5 -16 10 0 6 4 10 9 10 6 0 13 -4 16 -10z m-879 -113 c45 -39
134 -150 134 -167 0 -7 -102 -15 -361 -29 l-117 -6 28 32 c38 42 75 108 90
158 6 22 13 45 14 50 2 6 36 9 84 7 79 -3 82 -5 128 -45z m-1556 -38 c0 -24
-23 -21 -28 4 -2 10 3 17 12 17 10 0 16 -9 16 -21z m1275 -9 c8 -12 -10 -46
-48 -90 -60 -69 -63 -70 -259 -69 -172 1 -177 0 -220 -25 -55 -32 -128 -58
-128 -46 0 6 4 10 10 10 20 0 151 91 147 103 -2 7 -29 13 -70 15 -37 2 -67 6
-67 11 0 4 7 16 15 27 8 10 15 31 15 47 l0 27 299 0 c185 0 302 -4 306 -10z
m-850 -35 c0 -25 -4 -31 -27 -33 -19 -2 -30 3 -38 18 -15 28 4 52 39 48 22 -2
26 -8 26 -33z m-193 -5 c25 0 29 -3 18 -10 -21 -13 -64 -12 -78 2 -19 19 -14
30 7 18 11 -5 35 -10 53 -10z m2448 -5 c7 -8 10 -25 6 -40 l-6 -25 -188 0
c-188 0 -212 4 -212 36 0 7 7 20 16 28 22 23 365 24 384 1z m-2256 -107 c8
-13 8 -23 0 -35 -10 -16 -35 -18 -239 -21 -234 -2 -255 1 -255 37 0 39 16 41
254 39 205 -3 230 -5 240 -20z m231 2 c-28 -12 -143 -12 -150 0 -4 6 26 10 82
9 58 0 81 -3 68 -9z m1390 -80 l70 -40 -735 1 -735 0 50 23 c28 12 66 30 85
39 31 14 104 16 615 16 l580 1 70 -40z m-1167 -70 c235 0 264 -2 246 -15 -15
-11 -69 -14 -291 -14 -150 -1 -273 2 -273 5 0 13 26 33 38 29 8 -3 133 -5 280
-5z m1301 -11 c2 -7 -1 -9 -8 -5 -6 4 -11 2 -11 -3 0 -8 -110 -11 -350 -11
-316 0 -351 -2 -357 -16 -4 -11 1 -22 12 -30 10 -8 13 -14 6 -14 -6 0 -20 14
-29 31 -17 31 -17 31 -85 25 -41 -3 -65 -1 -62 5 4 5 1 9 -6 9 -8 0 -9 3 -3 9
14 15 68 16 494 14 288 -2 396 -6 399 -14z m241 11 c-80 -3 -151 -8 -159 -11
-7 -2 -16 2 -18 9 -4 9 32 12 159 10 l163 -2 -145 -6z m-1366 -351 c19 -16 38
-39 41 -49 9 -28 -12 -60 -38 -60 -60 0 -115 103 -69 129 25 15 28 14 66 -20z"/>
<path d="M2590 4078 c-47 -45 -131 -127 -188 -183 l-104 -100 33 -7 c33 -6 59
-31 59 -55 0 -7 -14 -28 -32 -48 l-31 -36 29 7 c17 4 65 41 114 88 197 188
320 311 320 320 0 17 -83 96 -100 96 -8 0 -53 -37 -100 -82z"/>
<path d="M1256 4004 c-20 -20 -20 -34 -1 -34 13 0 15 -8 10 -37 -4 -21 -11
-48 -17 -60 -14 -29 5 -53 42 -53 19 0 37 10 55 32 23 28 27 39 23 80 -3 27
-13 57 -23 68 -22 24 -67 26 -89 4z"/>
<path d="M3830 2735 c-15 -18 -1 -39 22 -33 11 2 12 8 2 26 -10 20 -13 21 -24
7z"/>
<path d="M1033 2910 c-13 -5 -23 -12 -23 -16 0 -3 7 -3 16 0 9 4 39 3 67 0
l50 -7 -7 -135 c-3 -75 -8 -137 -11 -140 -2 -3 -11 1 -20 8 -11 9 -18 10 -29
1 -11 -10 -15 1 -21 64 -4 41 -10 75 -15 75 -4 0 -7 -39 -5 -87 2 -49 1 -82
-2 -75 -6 16 -23 15 -23 -2 0 -18 25 -27 38 -14 8 8 15 8 24 0 8 -7 19 -7 28
-2 8 5 21 5 31 0 23 -13 47 14 30 34 -7 9 -11 41 -9 82 3 66 3 67 18 38 8 -16
22 -39 31 -51 12 -16 16 -40 15 -81 -4 -92 -43 -132 -127 -132 -33 0 -48 7
-74 33 -48 48 -53 89 -20 171 31 77 31 117 1 70 -11 -16 -19 -37 -19 -46 1
-10 -3 -21 -9 -24 -7 -5 -8 -2 -3 7 6 11 5 11 -4 3 -38 -35 -32 -155 11 -201
65 -71 161 -78 229 -16 73 66 77 146 10 245 -38 56 -41 66 -41 128 0 53 -4 69
-16 74 -23 9 -95 6 -121 -4z m67 -310 c0 -5 -4 -10 -10 -10 -5 0 -10 5 -10 10
0 6 5 10 10 10 6 0 10 -4 10 -10z"/>
<path d="M3547 1631 c4 -17 13 -21 44 -21 28 0 39 4 39 15 0 9 -9 15 -22 15
-13 0 -33 3 -45 6 -18 5 -21 3 -16 -15z"/>
<path d="M1336 1739 c-43 -50 -35 -119 16 -145 28 -14 33 -14 76 8 26 13 48
30 50 39 3 15 -6 16 -65 13 l-68 -4 45 15 c25 8 55 15 68 15 31 0 29 31 -4 64
-38 37 -84 36 -118 -5z"/>
<path d="M1415 1550 c-3 -6 1 -7 9 -4 18 7 21 14 7 14 -6 0 -13 -4 -16 -10z"/>
<path d="M1230 1452 c-5 -2 -10 -9 -10 -16 0 -10 35 -13 155 -11 140 2 177 7
164 19 -5 5 -295 12 -309 8z"/>
<path d="M1220 1350 c0 -6 60 -10 160 -10 100 0 160 4 160 10 0 6 -60 10 -160
10 -100 0 -160 -4 -160 -10z"/>
<path d="M2236 377 c-11 -8 -17 -23 -14 -38 l3 -24 215 -3 c118 -1 225 0 238
3 28 7 30 50 3 65 -30 16 -423 13 -445 -3z"/>
</g>
</svg>
