<?xml version="1.0" encoding="UTF-8"?>
<svg xmlns="http://www.w3.org/2000/svg" xmlns:xlink="http://www.w3.org/1999/xlink" width="500px" height="500px" viewBox="0 0 500 500" version="1.1">
<g id="surface1">
<path style=" stroke:none;fill-rule:nonzero;fill:rgb(0%,0%,0%);fill-opacity:1;" d="M 250 229.167969 C 261.457031 229.167969 271.269531 225.082031 279.4375 216.917969 C 287.589844 208.765625 291.667969 198.957031 291.667969 187.5 C 291.667969 176.042969 287.589844 166.230469 279.4375 158.0625 C 271.269531 149.910156 261.457031 145.832031 250 145.832031 C 238.542969 145.832031 228.734375 149.910156 220.582031 158.0625 C 212.417969 166.230469 208.332031 176.042969 208.332031 187.5 C 208.332031 198.957031 212.417969 208.765625 220.582031 216.917969 C 228.734375 225.082031 238.542969 229.167969 250 229.167969 Z M 250 270.832031 C 227.082031 270.832031 207.464844 262.671875 191.144531 246.355469 C 174.828125 230.035156 166.667969 210.417969 166.667969 187.5 C 166.667969 164.582031 174.828125 144.964844 191.144531 128.644531 C 207.464844 112.328125 227.082031 104.167969 250 104.167969 C 272.917969 104.167969 292.535156 112.328125 308.855469 128.644531 C 325.171875 144.964844 333.332031 164.582031 333.332031 187.5 C 333.332031 210.417969 325.171875 230.035156 308.855469 246.355469 C 292.535156 262.671875 272.917969 270.832031 250 270.832031 Z M 250 500 C 215.625 500 183.25 493.484375 152.875 480.457031 C 122.484375 467.445312 95.921875 449.570312 73.1875 426.832031 C 50.4375 404.082031 32.554688 377.519531 19.542969 347.144531 C 6.515625 316.757812 0 284.375 0 250 C 0 215.625 6.515625 183.242188 19.542969 152.855469 C 32.554688 122.480469 50.4375 95.917969 73.1875 73.167969 C 95.921875 50.429688 122.484375 32.554688 152.875 19.542969 C 183.25 6.515625 215.625 0 250 0 C 284.375 0 316.757812 6.515625 347.144531 19.542969 C 377.519531 32.554688 404.082031 50.429688 426.832031 73.167969 C 449.570312 95.917969 467.445312 122.480469 480.457031 152.855469 C 493.484375 183.242188 500 215.625 500 250 C 500 284.375 493.484375 316.757812 480.457031 347.144531 C 467.445312 377.519531 449.570312 404.082031 426.832031 426.832031 C 404.082031 449.570312 377.519531 467.445312 347.144531 480.457031 C 316.757812 493.484375 284.375 500 250 500 Z M 250 458.332031 C 275 458.332031 298.4375 454.339844 320.3125 446.355469 C 342.1875 438.367188 362.152344 427.082031 380.207031 412.5 C 368.75 399.652344 351.910156 388.457031 329.6875 378.917969 C 307.464844 369.359375 280.902344 364.582031 250 364.582031 C 219.097656 364.582031 192.535156 369.359375 170.3125 378.917969 C 148.089844 388.457031 131.25 399.652344 119.792969 412.5 C 137.847656 427.082031 157.8125 438.367188 179.6875 446.355469 C 201.5625 454.339844 225 458.332031 250 458.332031 Z M 89.582031 383.332031 C 106.25 365.277344 128.644531 350.695312 156.769531 339.582031 C 184.894531 328.472656 215.972656 322.917969 250 322.917969 C 284.027344 322.917969 315.019531 328.472656 342.980469 339.582031 C 370.921875 350.695312 393.230469 365.277344 409.894531 383.332031 C 425.171875 364.929688 437.070312 344.445312 445.582031 321.875 C 454.082031 299.304688 458.332031 275.347656 458.332031 250 C 458.332031 221.179688 452.859375 194.1875 441.917969 169.019531 C 430.984375 143.839844 416.054688 121.792969 397.125 102.875 C 378.207031 83.945312 356.160156 69.007812 330.980469 58.0625 C 305.8125 47.132812 278.820312 41.667969 250 41.667969 C 221.527344 41.667969 194.617188 47.132812 169.269531 58.0625 C 143.921875 69.007812 121.792969 83.945312 102.875 102.875 C 83.945312 121.792969 69.015625 143.839844 58.082031 169.019531 C 47.140625 194.1875 41.667969 221.179688 41.667969 250 C 41.667969 275.347656 45.832031 299.394531 54.167969 322.144531 C 62.5 344.882812 74.304688 365.277344 89.582031 383.332031 Z M 89.582031 383.332031 "/>
</g>
</svg>
