<?xml version="1.0" encoding="UTF-8"?>
<svg xmlns="http://www.w3.org/2000/svg" xmlns:xlink="http://www.w3.org/1999/xlink" width="32px" height="32px" viewBox="0 0 32 32" version="1.1">
<g id="surface1">
<path style=" stroke:none;fill-rule:nonzero;fill:rgb(0%,0%,0%);fill-opacity:1;" d="M 16 17.332031 C 17.289062 17.332031 18.390625 16.878906 19.300781 15.964844 C 20.210938 15.054688 20.667969 13.957031 20.667969 12.667969 C 20.667969 11.378906 20.210938 10.277344 19.300781 9.367188 C 18.390625 8.457031 17.289062 8 16 8 C 14.710938 8 13.609375 8.457031 12.699219 9.367188 C 11.789062 10.277344 11.332031 11.378906 11.332031 12.667969 C 11.332031 13.957031 11.789062 15.054688 12.699219 15.964844 C 13.609375 16.878906 14.710938 17.332031 16 17.332031 Z M 6.667969 28 C 5.933594 28 5.304688 27.738281 4.78125 27.214844 C 4.261719 26.691406 4 26.066406 4 25.332031 L 4 6.667969 C 4 5.933594 4.261719 5.304688 4.785156 4.78125 C 5.308594 4.261719 5.933594 4 6.667969 4 L 25.332031 4 C 26.066406 4 26.695312 4.261719 27.21875 4.785156 C 27.738281 5.308594 28 5.933594 28 6.667969 L 28 25.332031 C 28 26.066406 27.738281 26.695312 27.214844 27.21875 C 26.691406 27.738281 26.066406 28 25.332031 28 Z M 6.667969 25.332031 L 25.332031 25.332031 L 25.332031 23.800781 C 24.132812 22.621094 22.738281 21.695312 21.148438 21.015625 C 19.558594 20.339844 17.84375 20 16 20 C 14.15625 20 12.4375 20.339844 10.847656 21.015625 C 9.261719 21.695312 7.867188 22.625 6.667969 23.800781 Z M 6.667969 25.332031 "/>
</g>
</svg>
